<svg width="150" height="150" viewBox="0 0 150 150" fill="none" xmlns="http://www.w3.org/2000/svg">
<path d="M75.3239 150C100.832 150 121.51 129.322 121.51 103.813H29.1375C29.1375 129.322 49.8158 150 75.3239 150Z" fill="url(#paint0_linear)"/>
<path d="M94.8152 4.66102L98.4169 0C98.4169 0 90.0503 2.2789 85.0694 4.66102C81.8939 6.17973 80.0502 7.00313 77.2304 9.11017C74.3712 11.2467 72.6126 12.4765 70.6626 15.4661C68.7127 18.4557 66.7119 24.3644 66.7119 42.3729C66.7119 60.3814 57.3898 65.8898 57.3898 65.8898C57.3898 65.8898 55.6949 66.7373 54.4237 65.2542C53.1525 63.7712 53.3754 46.822 53.1525 45.339C52.9297 43.8559 52.4535 41.8716 51.383 39.8305C50.413 37.9812 48.4169 35.3814 48.4169 35.3814C48.4169 35.3814 46.1517 32.505 44.1796 31.3559C43.3158 30.8526 41.8491 30.2966 41.8491 30.2966C41.8491 30.2966 43.0716 32.9475 43.544 34.7458C43.9069 36.1272 44.049 36.9252 44.1796 38.3475C44.3233 39.9129 44.3203 40.8072 44.1796 42.3729C43.998 44.3931 43.5717 45.4801 43.1203 47.4576C42.2627 51.2143 41.6606 53.2934 40.5779 56.9915C39.159 61.8378 38.1164 64.4782 36.5525 69.2797C34.7211 74.9022 33.2661 77.9351 31.8914 83.6864C30.5475 89.3091 29.4452 93.8034 29.1373 99.5763C28.793 106.034 29.0535 108.084 30.4086 114.407L120.875 111.653C121.619 106.154 121.769 102.468 121.298 96.6102C120.56 87.4159 118.831 81.7797 115.441 73.7288C112.051 65.678 109.932 59.7458 97.2203 38.3475C84.5085 16.9492 94.8152 4.66102 94.8152 4.66102Z" fill="url(#paint1_linear)"/>
<path d="M58.0251 0.635254C58.0251 0.635254 59.0797 5.12042 59.2963 8.05051C59.5649 11.6848 58.9639 15.4598 58.4488 19.0675C58.0253 22.0336 57.5629 23.7942 58.4488 27.7539C58.9521 30.0031 60.3556 33.6861 60.3556 33.6861C60.3556 33.6861 52.3941 28.6014 51.4574 22.6692C50.5207 16.7369 54.6657 13.2312 56.3302 7.20305C57.0352 4.64968 58.0251 0.635254 58.0251 0.635254Z" fill="url(#paint2_linear)"/>
<path d="M106.331 107.203C106.331 124.404 92.1357 137.076 75.8221 136.229C59.5085 135.381 45.9492 124.404 45.9492 107.203C45.9492 90.0028 58.6217 76.271 75.8221 76.271C93.0225 76.271 106.331 90.0028 106.331 107.203Z" fill="url(#paint3_linear)"/>
<path d="M72.1157 92.638C72.6419 90.9924 73.3869 88.4007 73.3869 88.4007V86.4939C73.3869 86.4939 72.7517 82.0449 60.0395 87.3414C47.3272 92.6379 52.0934 108.898 55.695 111.229C59.2966 113.559 59.0458 113.789 61.5225 114.036C62.4281 114.127 62.9642 114.232 63.853 114.036C66.3158 113.494 66.8258 111.345 68.0903 109.163C70.2871 105.373 70.5256 98.5168 70.5256 98.5168C70.5256 98.5168 71.4224 94.8063 72.1157 92.638Z" fill="#2D00A5" fill-opacity="0.7"/>
<path d="M92.3475 89.4067C92.6169 89.024 92.5594 88.8555 93.195 88.5593C93.8306 88.2631 96.719 91.0569 97.856 93.4322C98.6969 95.1887 98.9153 98.3051 98.9153 98.3051C98.9153 98.3051 99.1531 101.351 97.856 102.33C97.3532 102.71 95.7373 102.33 95.7373 102.33C95.7373 102.33 94.4167 101.084 93.6187 99.5762C92.4725 97.4107 92.1357 93.8559 92.1357 93.8559C92.1357 93.8559 91.4428 90.6924 92.3475 89.4067Z" fill="#2D00A5" fill-opacity="0.7"/>
<path d="M85.1441 96.61C85.1441 96.61 86.2647 95.2813 87.2627 95.127C88.297 94.967 89.0119 95.7015 89.5932 96.6103C90.1356 97.4581 90.1508 98.1549 90.017 99.1524C89.8694 100.253 89.5228 101.066 88.7458 101.695C87.6526 102.58 86.2373 102.58 85.1441 101.695C84.3671 101.066 84.1442 100.362 84.0848 99.3643C84.0163 98.2139 85.1441 96.61 85.1441 96.61Z" fill="#2D00A5" fill-opacity="0.7"/>
<path d="M90.2292 109.049C90.2292 109.049 89.6536 105.082 90.4408 104.449C91.2565 103.793 93.8307 106.144 94.6956 106.847C95.4763 107.483 95.951 108.118 96.3339 109.049C96.7562 110.076 96.8626 110.953 96.5042 111.887C95.9999 113.2 94.7743 113.907 93.385 113.687C92.3976 113.531 91.8528 113.033 91.3024 112.199C90.6679 111.237 90.2292 109.049 90.2292 109.049Z" fill="#2D00A5" fill-opacity="0.7"/>
<defs>
<linearGradient id="paint0_linear" x1="75.3239" y1="103.813" x2="75.3239" y2="150" gradientUnits="userSpaceOnUse">
<stop stop-color="#FC4555"/>
<stop offset="1" stop-color="#FC4055"/>
</linearGradient>
<linearGradient id="paint1_linear" x1="75.2837" y1="0" x2="75.2837" y2="114.407" gradientUnits="userSpaceOnUse">
<stop stop-color="#FFD864"/>
<stop offset="1" stop-color="#FC4055"/>
</linearGradient>
<linearGradient id="paint2_linear" x1="55.8385" y1="0.635254" x2="55.8385" y2="33.6861" gradientUnits="userSpaceOnUse">
<stop stop-color="#FFD864"/>
<stop offset="1" stop-color="#FC4055"/>
</linearGradient>
<linearGradient id="paint3_linear" x1="76.1399" y1="76.271" x2="76.1399" y2="136.269" gradientUnits="userSpaceOnUse">
<stop stop-color="#B833E1"/>
<stop offset="1" stop-color="#4D54E0"/>
</linearGradient>
</defs>
</svg>
